# Blender v2.83.0 OBJ File: 'test.blend'
# www.blender.org
mtllib BEAR.mtl
o Cube_Cube.001
v -0.352453 0.712574 0.456574
v -0.052175 2.235224 0.016697
v -0.352453 0.712574 -1.272426
v -0.191278 2.712574 -1.543426
v 1.647547 0.712574 0.456574
v 1.347270 2.235224 0.016697
v 1.647547 0.712574 -1.272426
v 1.486373 2.712574 -1.543426
v -0.352453 1.930011 0.456574
v -0.352453 1.712574 -1.543426
v 1.647547 1.712574 -1.543426
v 1.647547 1.930011 0.456574
v -0.352453 0.712574 -0.543426
v -0.191278 2.712574 -0.543426
v 1.647547 0.712574 -0.543426
v 1.486373 2.712574 -0.543426
v 1.647547 1.712574 -0.543426
v -0.352453 1.712574 -0.543426
v 0.980881 0.376669 -1.543426
v 0.314214 0.376669 -1.543426
v 0.314214 2.906755 -1.543426
v 0.980881 2.906755 -1.543426
v 0.314214 0.831846 0.456574
v 0.980881 0.831846 0.456574
v 0.980881 2.712574 0.210000
v 0.314214 2.712574 0.210000
v 0.980881 1.449091 0.666770
v 0.314214 1.449091 0.666770
v -0.805882 1.469023 -1.641406
v -1.352453 0.671749 -1.543426
v 0.314214 2.927557 -0.543426
v 0.980881 2.927557 -0.543426
v 0.980881 0.376669 -0.543426
v 0.314214 0.376669 -0.543426
v 1.157184 2.962232 1.061459
v 0.137911 2.962232 1.061459
v 1.278522 1.605066 1.061459
v 0.016572 1.605066 1.061459
v -0.999059 0.849990 -0.543426
v -1.094010 0.849990 0.339087
v -0.765842 1.427661 0.295574
v -0.765842 1.427661 -0.399722
v 2.060936 1.427661 0.295574
v 2.389105 0.849990 0.339087
v 2.060936 1.427661 -0.399722
v 2.294154 0.849990 -0.543426
v -0.352453 1.712574 -2.543426
v -0.352453 0.712574 -2.543426
v 0.486745 0.784641 -2.624568
v 1.002118 2.243375 -2.576916
v 1.484851 2.076872 -2.543426
v 1.647547 1.712574 -2.543426
v 1.647547 0.712574 -2.543426
v -0.189756 2.076872 -2.543426
v 0.808350 1.213777 -2.853520
v 0.808350 0.784641 -2.624568
v 0.292977 2.243375 -2.576916
v 0.486745 1.213777 -2.853520
v -0.806182 1.468777 -2.287185
v -1.082259 0.671749 -2.543426
v 2.100977 1.469023 -1.641406
v 2.647547 0.671749 -1.543426
v 2.377354 0.671749 -2.543426
v 2.101277 1.468777 -2.287185
v 1.000783 2.792129 1.877949
v 0.294312 2.792129 1.877949
v 0.902528 2.004320 2.420461
v 0.392567 2.004320 2.420461
v 0.980881 2.379241 1.978844
v 0.980881 2.337654 2.420461
v 0.314214 2.379241 1.978844
v 0.314214 2.337654 2.420461
v -0.421514 0.273628 -0.454430
v -0.421514 0.273628 0.224352
v -0.943918 0.184291 0.224352
v -0.971503 0.184291 -0.426688
v 1.716609 0.273628 0.224352
v 1.716609 0.273628 -0.454430
v 2.266598 0.184291 -0.426688
v 2.239012 0.184291 0.224352
v -0.421514 0.273628 -1.679701
v -1.213978 0.184291 -1.649750
v -1.198439 0.184291 -2.311204
v -0.421514 0.273628 -2.311204
v 1.716609 0.273628 -2.311204
v 2.493534 0.184291 -2.311204
v 2.509073 0.184291 -1.649750
v 1.716609 0.273628 -1.679701
v 0.758659 2.962232 1.061459
v 0.536436 2.962232 1.061459
v 0.314214 2.879013 1.367254
v 0.980881 2.879013 1.367254
v -0.327668 -0.249539 -0.454430
v -0.327668 -0.249539 0.083542
v -0.660995 -0.338876 0.083542
v -0.660995 -0.338876 -0.426688
v 1.622762 -0.249539 0.083542
v 1.622762 -0.249539 -0.454430
v 1.956089 -0.338876 -0.426688
v 1.956089 -0.338876 0.083542
v -0.327668 -0.249539 -1.679701
v -0.825695 -0.338876 -1.649750
v -0.825695 -0.338876 -2.311204
v -0.327668 -0.249539 -2.311204
v 1.622762 -0.249539 -2.311204
v 2.120790 -0.338876 -2.311204
v 2.120790 -0.338876 -1.649750
v 1.622762 -0.249539 -1.679701
v -0.247898 -0.694232 -0.560615
v -0.247898 -0.694232 0.175887
v -0.627124 -0.783568 0.175887
v -0.627124 -0.783568 -0.532872
v 1.542993 -0.694232 0.175887
v 1.542993 -0.694232 -0.560615
v 1.922219 -0.783568 -0.532872
v 1.922219 -0.783568 0.175887
v -0.247898 -0.694231 -1.516127
v -0.745926 -0.783568 -1.486176
v -0.745926 -0.783568 -2.311204
v -0.247898 -0.694232 -2.311204
v 1.542993 -0.694232 -2.311204
v 2.041021 -0.783568 -2.311204
v 2.041021 -0.783568 -1.486176
v 1.542993 -0.694231 -1.516127
v 0.980881 0.632420 -2.543355
v 0.314214 0.632420 -2.543355
v 0.314214 1.365999 -2.934733
v 0.980881 1.365999 -2.934733
v 0.310468 0.510719 -2.824376
v 0.331826 1.178710 -3.147518
v 0.963268 1.178710 -3.147518
v 0.984627 0.510719 -2.824376
v 0.486745 0.525230 -3.110796
v 0.486745 0.954366 -3.339748
v 0.808350 0.954366 -3.339748
v 0.808350 0.525230 -3.110796
v 0.536436 3.010920 1.057083
v 0.137911 3.200586 1.111389
v 0.980881 3.117367 1.417184
v 1.157184 3.200586 1.111389
v 0.758659 3.010920 1.057083
v 0.314214 3.117367 1.417184
vt 0.500000 0.125000
vt 0.625000 0.125000
vt 0.625000 0.250000
vt 0.500000 0.250000
vt 0.625000 0.500000
vt 0.500000 0.500000
vt 0.500000 0.500000
vt 0.625000 0.500000
vt 0.500000 0.625000
vt 0.625000 0.625000
vt 0.625000 0.750000
vt 0.175781 0.171875
vt 0.082031 0.304688
vt 0.007812 0.261719
vt 0.582031 0.511719
vt 0.750000 0.511719
vt 0.750000 0.312500
vt 0.582031 0.312500
vt 0.171875 0.394531
vt 0.042969 0.402344
vt 0.078125 0.363281
vt 0.171875 0.320312
vt 0.175781 0.035156
vt 0.007812 0.011719
vt 0.500000 0.750000
vt 0.375000 0.750000
vt 0.375000 0.750000
vt 0.500000 0.750000
vt 0.042969 0.511719
vt 0.171875 0.500000
vt 0.164062 0.640625
vt 0.042969 0.644531
vt 0.375000 0.125000
vt 0.375000 0.250000
vt 0.500000 0.000000
vt 0.500000 0.125000
vt 0.500000 0.000000
vt 0.375000 0.500000
vt 0.375000 0.625000
vt 0.582031 0.710938
vt 0.750000 0.656250
vt 0.625000 0.000000
vt 0.250000 0.656250
vt 0.417969 0.710938
vt 0.417969 0.511719
vt 0.250000 0.511719
vt 0.464844 0.511719
vt 0.335938 0.500000
vt 0.335938 0.394531
vt 0.464844 0.402344
vt 0.625000 0.250000
vt 0.500000 0.250000
vt 0.507812 0.011719
vt 0.507812 0.261719
vt 0.343750 0.171875
vt 0.343750 0.035156
vt 0.335938 0.320312
vt 0.429688 0.363281
vt 0.417969 0.312500
vt 0.250000 0.312500
vt 0.433594 0.304688
vt 0.320312 0.726562
vt 0.398438 0.953125
vt 0.250000 1.000000
vt 0.250000 0.757812
vt 0.603836 0.828043
vt 0.396164 0.828043
vt 0.396164 1.139528
vt 0.603836 1.139528
vt 0.261534 1.000000
vt 0.080725 1.000000
vt 0.000000 0.887996
vt 0.342259 0.887996
vt 0.125000 0.214844
vt 0.226562 0.214844
vt 0.281250 0.214844
vt 0.382812 0.214844
vt 0.398438 0.953125
vt 0.320312 0.726562
vt 0.250000 0.757812
vt 0.250000 1.000000
vt 0.375000 0.000000
vt 0.375000 0.125000
vt 1.000000 0.142124
vt 1.000000 0.463183
vt 0.884401 0.328764
vt 0.796825 0.177572
vt 0.375000 0.625000
vt 0.500000 0.625000
vt 0.335938 0.718750
vt 0.343750 0.640625
vt 0.464844 0.644531
vt 0.503906 0.664062
vt 0.375000 0.416667
vt 0.500000 0.416667
vt 0.375000 0.500000
vt 0.375000 0.250000
vt 0.500000 0.333333
vt 0.375000 0.333333
vt 0.400938 0.354900
vt 0.474062 0.354900
vt 0.474062 0.395100
vt 0.400938 0.395100
vt 0.003906 0.664062
vt 0.171875 0.718750
vt 0.188493 0.743624
vt 0.188493 1.139550
vt 0.811507 0.743624
vt 0.811507 1.139550
vt 0.375000 0.250000
vt 0.500000 0.250000
vt 0.500000 0.250000
vt 0.375000 0.250000
vt 0.500000 0.500000
vt 0.375000 0.500000
vt 0.375000 0.500000
vt 0.500000 0.500000
vt 0.078125 0.898438
vt 0.101562 0.968750
vt 0.195312 0.984375
vt 0.101975 0.514173
vt 0.240284 0.514173
vt 0.078125 0.898438
vt 0.000000 0.890625
vt 0.000000 0.828125
vt 0.488281 0.832031
vt 0.488281 0.992188
vt 0.406250 0.972656
vt 0.406250 0.847656
vt 0.597656 0.832031
vt 0.597656 0.992188
vt 0.125000 0.625000
vt 0.125000 0.625000
vt 0.125000 0.750000
vt 0.125000 0.750000
vt 0.125000 0.750000
vt 0.125000 0.750000
vt 0.125000 0.625000
vt 0.125000 0.625000
vt 0.834559 0.000000
vt 0.975665 0.022817
vt 0.125000 0.625000
vt 0.125000 0.625000
vt 0.125000 0.750000
vt 0.125000 0.750000
vt 0.125000 0.750000
vt 0.125000 0.750000
vt 0.375000 0.625000
vt 0.375000 0.750000
vt 0.375000 0.625000
vt 0.375000 0.750000
vt 0.125000 0.625000
vt 0.125000 0.625000
vt 0.375000 0.250000
vt 0.375000 0.250000
vt 0.375000 0.250000
vt 0.375000 0.250000
vt 0.375000 0.500000
vt 0.375000 0.500000
vt 0.375000 0.500000
vt 0.375000 0.500000
vt 0.828125 0.832031
vt 0.906250 0.882812
vt 0.906250 0.937500
vt 0.828125 0.992188
vt 0.375000 0.625000
vt 0.375000 0.750000
vt 0.375000 0.625000
vt 0.375000 0.750000
vt 0.375000 0.250000
vt 0.375000 0.250000
vt 0.375000 0.250000
vt 0.375000 0.250000
vt 0.375000 0.500000
vt 0.375000 0.500000
vt 0.375000 0.500000
vt 0.375000 0.500000
vt 0.375000 0.750000
vt 0.375000 0.625000
vt 0.375000 0.625000
vt 0.375000 0.750000
vt 0.375000 0.250000
vt 0.375000 0.250000
vt 0.375000 0.250000
vt 0.375000 0.250000
vt 0.375000 0.500000
vt 0.375000 0.500000
vt 0.375000 0.500000
vt 0.375000 0.500000
vt 0.400938 0.354900
vt 0.400938 0.395100
vt 0.474062 0.395100
vt 0.474062 0.354900
vt 0.474062 0.354900
vt 0.400938 0.354900
vt 0.474062 0.395100
vt 0.400938 0.395100
vt 0.703125 1.000000
vt 0.703125 0.824219
vt 0.000000 0.828125
vt 0.000000 0.890625
vt 0.195312 0.984375
vt 0.101562 0.968750
vt 0.000000 0.984482
vt 0.000000 0.537632
vt 0.421482 0.553150
vt 0.421482 1.000000
vt 0.578114 0.982557
vt 0.691692 0.491710
vt 1.000000 0.982557
vt 0.000000 0.175309
vt 0.578114 0.000000
vt 0.578114 0.537632
vt 0.097039 0.414423
vt 0.099356 0.417212
vt 0.089844 0.761719
vt 0.393641 0.999937
vt 0.393641 0.000063
vt 0.000063 0.394667
vt 0.999652 0.491268
vt 0.917505 0.000000
vt 0.999652 0.000442
vt 0.175781 0.410156
vt 0.343750 0.410156
vt 0.578114 0.491710
vt 0.610308 0.506253
vn -0.9873 0.1591 0.0000
vn 0.9703 0.2303 -0.0740
vn 0.9226 0.1487 0.3559
vn 0.2838 0.6862 0.6698
vn 0.1565 -0.9631 0.2192
vn -0.6203 0.6649 0.4161
vn -0.1843 -0.1119 0.9765
vn 0.2547 0.0699 0.9645
vn -0.3102 0.8025 -0.5097
vn -1.0000 0.0000 0.0000
vn -0.6856 0.7221 -0.0926
vn 1.0000 0.0000 0.0000
vn -0.3751 0.9269 -0.0096
vn 0.4500 -0.8930 0.0000
vn 0.9873 0.1591 0.0000
vn -0.7936 0.5945 -0.1293
vn -0.4500 -0.8930 0.0000
vn 0.0000 -1.0000 0.0000
vn 0.3751 0.9269 -0.0096
vn 0.0000 0.9998 -0.0208
vn -0.9703 0.2303 -0.0740
vn 0.1843 -0.1119 0.9765
vn 0.0000 -0.3224 0.9466
vn 0.6203 0.6649 0.4161
vn 0.0000 0.9616 0.2744
vn -0.1565 -0.9631 0.2192
vn 0.0000 -0.9101 0.4143
vn -0.2838 0.6862 0.6698
vn 0.9364 -0.0177 -0.3504
vn 0.0000 -0.9688 -0.2478
vn 0.0000 -0.9300 0.3675
vn 0.0000 0.9596 -0.2814
vn -0.9364 -0.0177 -0.3504
vn -0.8963 0.4402 -0.0539
vn -0.2547 0.0699 0.9645
vn -0.1487 0.1115 -0.9826
vn 0.8963 0.4402 -0.0539
vn 0.1487 0.1115 -0.9826
vn 0.6856 0.7221 -0.0926
vn 0.2901 0.2954 -0.9103
vn 0.3360 -0.2074 -0.9187
vn -0.3360 -0.2074 -0.9187
vn 0.0000 -0.4707 -0.8823
vn -0.2901 0.2954 -0.9103
vn 0.0000 0.3776 -0.9260
vn -0.3158 -0.9429 -0.1062
vn 0.0000 0.8416 -0.5402
vn 0.3158 -0.9429 -0.1062
vn 0.3102 0.8025 -0.5097
vn -0.8736 0.4650 -0.1433
vn -0.2868 0.2756 0.9175
vn -0.4733 0.8809 -0.0000
vn -0.2482 0.1740 -0.9530
vn 0.8736 0.4650 -0.1433
vn 0.2868 0.2756 0.9175
vn 0.2482 0.1740 -0.9530
vn 0.4733 0.8809 -0.0000
vn -0.9264 0.2915 0.2382
vn 0.0000 -0.9595 0.2819
vn 0.9796 0.0294 0.1987
vn 0.0000 0.0000 1.0000
vn 0.0000 0.9956 0.0938
vn -0.9971 -0.0759 -0.0000
vn 0.9878 -0.1554 0.0000
vn -0.0996 -0.3048 0.9472
vn -0.9903 -0.1322 -0.0435
vn -0.0301 -0.1819 -0.9829
vn -0.0494 0.1970 0.9792
vn -0.9878 -0.1554 0.0000
vn 0.0301 -0.1819 -0.9829
vn 0.9903 -0.1322 -0.0435
vn 0.0996 -0.3048 0.9472
vn 0.9843 0.1766 -0.0000
vn -0.0814 -0.4879 0.8691
vn -0.9846 -0.0444 -0.1693
vn 0.0392 -0.4541 -0.8901
vn 0.2293 -0.9734 0.0000
vn -0.0392 -0.4541 -0.8901
vn 0.9846 -0.0444 -0.1693
vn 0.0814 -0.4879 0.8691
vn 0.0000 0.9649 0.2626
vn 0.0506 -0.2425 0.9688
vn -0.8685 -0.4953 0.0206
vn -0.0581 -0.0225 -0.9981
vn -0.9843 0.1766 -0.0000
vn 0.0581 -0.0225 -0.9981
vn 0.8685 -0.4953 0.0206
vn -0.0506 -0.2425 0.9688
vn 0.0436 0.0201 0.9988
vn -0.8087 -0.5882 -0.0095
vn -0.0000 0.0000 -1.0000
vn 0.8087 -0.5882 -0.0095
vn -0.0436 0.0201 0.9988
vn -0.1292 0.2147 -0.9681
vn -0.2293 -0.9734 0.0000
vn 0.1292 0.2147 -0.9681
vn 0.9971 -0.0759 -0.0000
vn 0.0494 0.1970 0.9792
vn 0.1766 -0.9843 0.0000
vn -0.0053 0.3444 0.9388
vn -0.9843 -0.1766 0.0000
vn -0.1766 -0.9843 0.0000
vn 0.9843 -0.1766 0.0000
vn 0.0053 0.3444 0.9388
vn -0.8689 0.2359 0.4352
vn 0.0000 0.9930 -0.1184
vn 0.8689 0.2359 0.4352
vn 0.0000 -0.5893 0.8079
vn -0.8446 -0.2275 -0.4847
vn 0.0000 0.6507 -0.7594
vn 0.8446 -0.2275 -0.4847
vn 0.0000 -0.9987 -0.0506
vn 0.0000 0.2374 0.9714
vn 0.0000 0.9858 0.1677
vn -0.9796 0.0294 0.1987
vn 0.9667 0.0864 0.2407
vn -0.9667 0.0864 0.2407
vn 0.9264 0.2915 0.2382
vn -0.9226 0.1487 0.3559
vn 0.7936 0.5945 -0.1293
vn -0.8735 -0.0998 0.4765
vn 0.8300 -0.1144 0.5460
vn 0.4295 0.9031 -0.0019
vn -0.4295 0.9031 -0.0019
vn 0.0358 0.2049 -0.9781
vn -0.8008 0.0536 0.5965
vn 0.0000 -0.0895 -0.9960
vn 0.8735 -0.0998 0.4765
vn -0.6846 0.2478 0.6855
vn 0.6846 0.2478 0.6855
vn -0.0358 0.2049 -0.9781
vn -0.8300 -0.1144 0.5460
vn 0.8008 0.0536 0.5965
usemtl Material.001
s off
f 18/1/1 14/2/1 4/3/1 10/4/1
f 8/5/2 11/6/2 52/7/2 51/8/2
f 17/9/3 16/10/3 6/11/3
f 28/12/4 2/13/4 9/14/4
f 33/15/5 15/16/5 5/17/5 24/18/5
f 31/19/6 14/20/6 2/21/6 26/22/6
f 23/23/7 28/12/7 9/14/7 1/24/7
f 12/25/8 5/26/8 44/27/8 43/28/8
f 4/29/9 21/30/9 57/31/9 54/32/9
f 13/33/10 18/1/10 10/4/10 3/34/10
f 9/35/11 18/1/11 42/36/11 41/37/11
f 7/38/12 11/6/12 17/9/12 15/39/12
f 21/30/13 4/29/13 14/20/13 31/19/13
f 19/40/14 7/41/14 15/16/14 33/15/14
f 11/6/15 8/5/15 16/10/15 17/9/15
f 9/35/16 2/42/16 18/1/16
f 3/43/17 20/44/17 34/45/17 13/46/17
f 20/44/18 19/40/18 33/15/18 34/45/18
f 8/47/19 22/48/19 32/49/19 16/50/19
f 22/48/20 21/30/20 31/19/20 32/49/20
f 10/4/21 4/3/21 54/51/21 47/52/21
f 5/53/22 12/54/22 27/55/22 24/56/22
f 24/56/23 27/55/23 28/12/23 23/23/23
f 16/50/24 32/49/24 25/57/24 6/58/24
f 32/49/25 31/19/25 26/22/25 25/57/25
f 13/46/26 34/45/26 23/59/26 1/60/26
f 34/45/27 33/15/27 24/18/27 23/59/27
f 6/61/28 27/55/28 12/54/28
f 27/62/29 25/63/29 35/64/29 37/65/29
f 19/66/30 20/67/30 126/68/30 125/69/30
f 28/70/31 27/71/31 37/72/31 38/73/31
f 25/57/32 26/22/32 36/74/32 90/75/32 89/76/32 35/77/32
f 26/78/33 28/79/33 38/80/33 36/81/33
f 40/82/34 41/37/34 42/36/34 39/83/34
f 1/84/35 9/85/35 41/86/35 40/87/35
f 18/1/36 13/33/36 39/83/36 42/36/36
f 46/88/37 45/89/37 43/28/37 44/27/37
f 15/39/38 17/9/38 45/89/38 46/88/38
f 17/9/39 12/25/39 43/28/39 45/89/39
f 128/90/40 50/91/40 51/92/40 52/93/40
f 125/94/41 128/95/41 52/7/41 53/96/41
f 48/97/42 47/52/42 127/98/42 126/99/42
f 133/100/43 134/101/43 135/102/43 136/103/43
f 47/104/44 54/32/44 57/31/44 127/105/44
f 127/105/45 57/31/45 50/91/45 128/90/45
f 20/67/46 3/106/46 48/107/46 126/68/46
f 21/30/47 22/48/47 50/91/47 57/31/47
f 7/108/48 19/66/48 125/69/48 53/109/48
f 22/48/49 8/47/49 51/92/49 50/91/49
f 30/110/50 29/111/50 59/112/50 60/113/50
f 10/4/51 29/111/51 30/110/51 3/34/51
f 47/52/52 59/112/52 29/111/52 10/4/52
f 48/97/53 60/113/53 59/112/53 47/52/53
f 61/114/54 62/115/54 63/116/54 64/117/54
f 7/38/55 62/115/55 61/114/55 11/6/55
f 52/7/56 64/117/56 63/116/56 53/96/56
f 11/6/57 61/114/57 64/117/57 52/7/57
f 36/81/58 71/118/58 66/119/58 91/120/58
f 38/73/59 37/72/59 67/121/59 68/122/59
f 37/65/60 69/123/60 70/124/60 67/125/60
f 70/126/61 72/127/61 68/128/61 67/129/61
f 69/130/62 71/131/62 72/127/62 70/126/62
f 96/132/63 112/133/63 111/134/63 95/135/63
f 1/136/64 74/137/64 73/138/64 13/139/64
f 40/87/65 75/140/65 74/141/65 1/84/65
f 39/142/66 76/143/66 75/144/66 40/145/66
f 13/139/67 73/138/67 76/143/67 39/142/67
f 95/135/68 111/134/68 110/146/68 94/147/68
f 15/39/69 78/148/69 77/149/69 5/26/69
f 46/88/70 79/150/70 78/148/70 15/39/70
f 44/27/71 80/151/71 79/150/71 46/88/71
f 5/26/72 77/149/72 80/151/72 44/27/72
f 94/147/73 110/146/73 109/152/73 93/153/73
f 30/110/74 82/154/74 81/155/74 3/34/74
f 60/113/75 83/156/75 82/154/75 30/110/75
f 48/97/76 84/157/76 83/156/76 60/113/76
f 3/34/64 81/155/64 84/157/64 48/97/64
f 109/152/77 110/146/77 111/134/77 112/133/77
f 63/116/78 86/158/78 85/159/78 53/96/78
f 62/115/79 87/160/79 86/158/79 63/116/79
f 7/38/80 88/161/80 87/160/80 62/115/80
f 53/96/69 85/159/69 88/161/69 7/38/69
f 92/162/81 89/163/81 90/164/81 91/165/81
f 74/137/73 94/147/73 93/153/73 73/138/73
f 75/144/82 95/135/82 94/147/82 74/137/82
f 76/143/83 96/132/83 95/135/83 75/144/83
f 73/138/84 93/153/84 96/132/84 76/143/84
f 78/148/85 98/166/85 97/167/85 77/149/85
f 79/150/86 99/168/86 98/166/86 78/148/86
f 80/151/87 100/169/87 99/168/87 79/150/87
f 77/149/88 97/167/88 100/169/88 80/151/88
f 82/154/89 102/170/89 101/171/89 81/155/89
f 83/156/90 103/172/90 102/170/90 82/154/90
f 84/157/91 104/173/91 103/172/91 83/156/91
f 81/155/73 101/171/73 104/173/73 84/157/73
f 86/158/91 106/174/91 105/175/91 85/159/91
f 87/160/92 107/176/92 106/174/92 86/158/92
f 88/161/93 108/177/93 107/176/93 87/160/93
f 85/159/85 105/175/85 108/177/85 88/161/85
f 93/153/94 109/152/94 112/133/94 96/132/94
f 113/178/95 114/179/95 115/180/95 116/181/95
f 98/166/85 114/179/85 113/178/85 97/167/85
f 99/168/96 115/180/96 114/179/96 98/166/96
f 100/169/97 116/181/97 115/180/97 99/168/97
f 97/167/98 113/178/98 116/181/98 100/169/98
f 117/182/99 118/183/99 119/184/99 120/185/99
f 102/170/100 118/183/100 117/182/100 101/171/100
f 103/172/101 119/184/101 118/183/101 102/170/101
f 104/173/91 120/185/91 119/184/91 103/172/91
f 101/171/73 117/182/73 120/185/73 104/173/73
f 121/186/102 122/187/102 123/188/102 124/189/102
f 106/174/91 122/187/91 121/186/91 105/175/91
f 107/176/103 123/188/103 122/187/103 106/174/103
f 108/177/104 124/189/104 123/188/104 107/176/104
f 105/175/85 121/186/85 124/189/85 108/177/85
f 49/190/43 56/191/43 125/94/43 126/99/43
f 55/192/43 58/193/43 127/98/43 128/95/43
f 58/193/43 49/190/43 126/99/43 127/98/43
f 56/191/43 55/192/43 128/95/43 125/94/43
f 58/193/105 130/194/105 129/195/105 49/190/105
f 55/192/106 131/196/106 130/194/106 58/193/106
f 56/191/107 132/197/107 131/196/107 55/192/107
f 49/190/108 129/195/108 132/197/108 56/191/108
f 130/194/109 134/101/109 133/100/109 129/195/109
f 131/196/110 135/102/110 134/101/110 130/194/110
f 132/197/111 136/103/111 135/102/111 131/196/111
f 129/195/112 133/100/112 136/103/112 132/197/112
f 66/198/113 71/131/113 69/130/113 65/199/113
f 92/162/114 91/165/114 66/198/114 65/199/114
f 71/118/115 38/80/115 68/200/115 72/201/115
f 69/123/116 37/65/116 35/64/116
f 71/118/117 36/81/117 38/80/117
f 35/64/118 92/202/118 65/203/118 69/123/118
f 18/1/119 2/42/119 14/2/119
f 6/11/120 12/25/120 17/9/120
f 36/204/121 91/205/121 142/206/121 138/207/121
f 91/208/122 137/209/122 142/210/122
f 138/211/123 142/212/123 137/213/123
f 139/214/124 140/215/124 141/216/124
f 35/217/125 141/216/125 140/215/125
f 92/218/126 141/216/126 89/219/126
f 36/220/127 137/221/127 90/222/127
f 92/218/128 35/217/128 140/215/128 139/214/128
f 28/12/129 26/223/129 2/13/129
f 6/61/130 25/224/130 27/55/130
f 35/217/127 89/219/127 141/216/127
f 36/220/131 138/225/131 137/221/131
f 92/218/132 139/214/132 141/216/132
f 91/208/133 90/226/133 137/209/133
